<svg width="529" height="802" xmlns="http://www.w3.org/2000/svg" xmlns:xlink="http://www.w3.org/1999/xlink" version="1.1" baseProfile="full" viewBox="0 0 529 802">
<rect width="529" height="802" x="0" y="0" id="0" fill="none" fill-opacity="1"></rect>
<path d="M94.5 8.02L94.5 763.96" fill="none" stroke="#86909C" stroke-linecap="round"></path>
<path d="M93.964 764.5L476.1 764.5" fill="none" stroke="#86909C" stroke-linecap="round"></path>
<path d="M93.964 8.5L88.964 8.5" fill="none" stroke="#86909C"></path>
<path d="M93.964 28.5L88.964 28.5" fill="none" stroke="#86909C"></path>
<path d="M93.964 49.5L88.964 49.5" fill="none" stroke="#86909C"></path>
<path d="M93.964 69.5L88.964 69.5" fill="none" stroke="#86909C"></path>
<path d="M93.964 89.5L88.964 89.5" fill="none" stroke="#86909C"></path>
<path d="M93.964 110.5L88.964 110.5" fill="none" stroke="#86909C"></path>
<path d="M93.964 130.5L88.964 130.5" fill="none" stroke="#86909C"></path>
<path d="M93.964 151.5L88.964 151.5" fill="none" stroke="#86909C"></path>
<path d="M93.964 171.5L88.964 171.5" fill="none" stroke="#86909C"></path>
<path d="M93.964 192.5L88.964 192.5" fill="none" stroke="#86909C"></path>
<path d="M93.964 212.5L88.964 212.5" fill="none" stroke="#86909C"></path>
<path d="M93.964 233.5L88.964 233.5" fill="none" stroke="#86909C"></path>
<path d="M93.964 253.5L88.964 253.5" fill="none" stroke="#86909C"></path>
<path d="M93.964 273.5L88.964 273.5" fill="none" stroke="#86909C"></path>
<path d="M93.964 294.5L88.964 294.5" fill="none" stroke="#86909C"></path>
<path d="M93.964 314.5L88.964 314.5" fill="none" stroke="#86909C"></path>
<path d="M93.964 335.5L88.964 335.5" fill="none" stroke="#86909C"></path>
<path d="M93.964 355.5L88.964 355.5" fill="none" stroke="#86909C"></path>
<path d="M93.964 376.5L88.964 376.5" fill="none" stroke="#86909C"></path>
<path d="M93.964 396.5L88.964 396.5" fill="none" stroke="#86909C"></path>
<path d="M93.964 416.5L88.964 416.5" fill="none" stroke="#86909C"></path>
<path d="M93.964 437.5L88.964 437.5" fill="none" stroke="#86909C"></path>
<path d="M93.964 457.5L88.964 457.5" fill="none" stroke="#86909C"></path>
<path d="M93.964 478.5L88.964 478.5" fill="none" stroke="#86909C"></path>
<path d="M93.964 498.5L88.964 498.5" fill="none" stroke="#86909C"></path>
<path d="M93.964 519.5L88.964 519.5" fill="none" stroke="#86909C"></path>
<path d="M93.964 539.5L88.964 539.5" fill="none" stroke="#86909C"></path>
<path d="M93.964 559.5L88.964 559.5" fill="none" stroke="#86909C"></path>
<path d="M93.964 580.5L88.964 580.5" fill="none" stroke="#86909C"></path>
<path d="M93.964 600.5L88.964 600.5" fill="none" stroke="#86909C"></path>
<path d="M93.964 621.5L88.964 621.5" fill="none" stroke="#86909C"></path>
<path d="M93.964 641.5L88.964 641.5" fill="none" stroke="#86909C"></path>
<path d="M93.964 662.5L88.964 662.5" fill="none" stroke="#86909C"></path>
<path d="M93.964 682.5L88.964 682.5" fill="none" stroke="#86909C"></path>
<path d="M93.964 702.5L88.964 702.5" fill="none" stroke="#86909C"></path>
<path d="M93.964 723.5L88.964 723.5" fill="none" stroke="#86909C"></path>
<path d="M93.964 743.5L88.964 743.5" fill="none" stroke="#86909C"></path>
<path d="M93.964 764.5L88.964 764.5" fill="none" stroke="#86909C"></path>
<text dominant-baseline="central" text-anchor="end" style="font-size:14px;font-family:SimSun, 宋体, Songti SC, sans-serif;font-weight:400;" transform="translate(85.964 18.2354)" fill="#333333">1-胶州市</text>
<text dominant-baseline="central" text-anchor="end" style="font-size:14px;font-family:SimSun, 宋体, Songti SC, sans-serif;font-weight:400;" transform="translate(85.964 38.6662)" fill="#333333">2-龙口市</text>
<text dominant-baseline="central" text-anchor="end" style="font-size:14px;font-family:SimSun, 宋体, Songti SC, sans-serif;font-weight:400;" transform="translate(85.964 59.097)" fill="#333333">3-齐河县</text>
<text dominant-baseline="central" text-anchor="end" style="font-size:14px;font-family:SimSun, 宋体, Songti SC, sans-serif;font-weight:400;" transform="translate(85.964 79.5278)" fill="#333333">4-平度市</text>
<text dominant-baseline="central" text-anchor="end" style="font-size:14px;font-family:SimSun, 宋体, Songti SC, sans-serif;font-weight:400;" transform="translate(85.964 99.9586)" fill="#333333">5-利津县</text>
<text dominant-baseline="central" text-anchor="end" style="font-size:14px;font-family:SimSun, 宋体, Songti SC, sans-serif;font-weight:400;" transform="translate(85.964 120.3895)" fill="#333333">6-肥城市</text>
<text dominant-baseline="central" text-anchor="end" style="font-size:14px;font-family:SimSun, 宋体, Songti SC, sans-serif;font-weight:400;" transform="translate(85.964 140.8203)" fill="#333333">7-曲阜市</text>
<text dominant-baseline="central" text-anchor="end" style="font-size:14px;font-family:SimSun, 宋体, Songti SC, sans-serif;font-weight:400;" transform="translate(85.964 161.2511)" fill="#333333">8-武城县</text>
<text dominant-baseline="central" text-anchor="end" style="font-size:14px;font-family:SimSun, 宋体, Songti SC, sans-serif;font-weight:400;" transform="translate(85.964 181.6819)" fill="#333333">9-荣成市</text>
<text dominant-baseline="central" text-anchor="end" style="font-size:14px;font-family:SimSun, 宋体, Songti SC, sans-serif;font-weight:400;" transform="translate(85.964 202.1127)" fill="#333333">10-招远市</text>
<text dominant-baseline="central" text-anchor="end" style="font-size:14px;font-family:SimSun, 宋体, Songti SC, sans-serif;font-weight:400;" transform="translate(85.964 222.5435)" fill="#333333">11-禹城市</text>
<text dominant-baseline="central" text-anchor="end" style="font-size:14px;font-family:SimSun, 宋体, Songti SC, sans-serif;font-weight:400;" transform="translate(85.964 242.9743)" fill="#333333">12-滕州市</text>
<text dominant-baseline="central" text-anchor="end" style="font-size:14px;font-family:SimSun, 宋体, Songti SC, sans-serif;font-weight:400;" transform="translate(85.964 263.4051)" fill="#333333">13-桓台县</text>
<text dominant-baseline="central" text-anchor="end" style="font-size:14px;font-family:SimSun, 宋体, Songti SC, sans-serif;font-weight:400;" transform="translate(85.964 283.8359)" fill="#333333">14-寿光市</text>
<text dominant-baseline="central" text-anchor="end" style="font-size:14px;font-family:SimSun, 宋体, Songti SC, sans-serif;font-weight:400;" transform="translate(85.964 304.2668)" fill="#333333">15-博兴县</text>
<text dominant-baseline="central" text-anchor="end" style="font-size:14px;font-family:SimSun, 宋体, Songti SC, sans-serif;font-weight:400;" transform="translate(85.964 324.6976)" fill="#333333">16-广饶县</text>
<text dominant-baseline="central" text-anchor="end" style="font-size:14px;font-family:SimSun, 宋体, Songti SC, sans-serif;font-weight:400;" transform="translate(85.964 345.1284)" fill="#333333">17-乳山市</text>
<text dominant-baseline="central" text-anchor="end" style="font-size:14px;font-family:SimSun, 宋体, Songti SC, sans-serif;font-weight:400;" transform="translate(85.964 365.5592)" fill="#333333">18-东阿县</text>
<text dominant-baseline="central" text-anchor="end" style="font-size:14px;font-family:SimSun, 宋体, Songti SC, sans-serif;font-weight:400;" transform="translate(85.964 385.99)" fill="#333333">19-嘉祥县</text>
<text dominant-baseline="central" text-anchor="end" style="font-size:14px;font-family:SimSun, 宋体, Songti SC, sans-serif;font-weight:400;" transform="translate(85.964 406.4208)" fill="#333333">20-邹平市</text>
<text dominant-baseline="central" text-anchor="end" style="font-size:14px;font-family:SimSun, 宋体, Songti SC, sans-serif;font-weight:400;" transform="translate(85.964 426.8516)" fill="#333333">21-平阴县</text>
<text dominant-baseline="central" text-anchor="end" style="font-size:14px;font-family:SimSun, 宋体, Songti SC, sans-serif;font-weight:400;" transform="translate(85.964 447.2824)" fill="#333333">22-诸城市</text>
<text dominant-baseline="central" text-anchor="end" style="font-size:14px;font-family:SimSun, 宋体, Songti SC, sans-serif;font-weight:400;" transform="translate(85.964 467.7132)" fill="#333333">23-莱西市</text>
<text dominant-baseline="central" text-anchor="end" style="font-size:14px;font-family:SimSun, 宋体, Songti SC, sans-serif;font-weight:400;" transform="translate(85.964 488.1441)" fill="#333333">24-邹城市</text>
<text dominant-baseline="central" text-anchor="end" style="font-size:14px;font-family:SimSun, 宋体, Songti SC, sans-serif;font-weight:400;" transform="translate(85.964 508.5749)" fill="#333333">25-青州市</text>
<text dominant-baseline="central" text-anchor="end" style="font-size:14px;font-family:SimSun, 宋体, Songti SC, sans-serif;font-weight:400;" xml:space="preserve" transform="translate(85.964 529.0057)" fill="#333333">26-费		县</text>
<text dominant-baseline="central" text-anchor="end" style="font-size:14px;font-family:SimSun, 宋体, Songti SC, sans-serif;font-weight:400;" transform="translate(85.964 549.4365)" fill="#333333">27-莱州市</text>
<text dominant-baseline="central" text-anchor="end" style="font-size:14px;font-family:SimSun, 宋体, Songti SC, sans-serif;font-weight:400;" transform="translate(85.964 569.8673)" fill="#333333">28-莒南县</text>
<text dominant-baseline="central" text-anchor="end" style="font-size:14px;font-family:SimSun, 宋体, Songti SC, sans-serif;font-weight:400;" transform="translate(85.964 590.2981)" fill="#333333">29-新泰市</text>
<text dominant-baseline="central" text-anchor="end" style="font-size:14px;font-family:SimSun, 宋体, Songti SC, sans-serif;font-weight:400;" transform="translate(85.964 610.7289)" fill="#333333">30-高密市</text>
<text dominant-baseline="central" text-anchor="end" style="font-size:14px;font-family:SimSun, 宋体, Songti SC, sans-serif;font-weight:400;" transform="translate(85.964 631.1597)" fill="#333333">31-栖霞市</text>
<text dominant-baseline="central" text-anchor="end" style="font-size:14px;font-family:SimSun, 宋体, Songti SC, sans-serif;font-weight:400;" transform="translate(85.964 651.5905)" fill="#333333">32-沂南县</text>
<text dominant-baseline="central" text-anchor="end" style="font-size:14px;font-family:SimSun, 宋体, Songti SC, sans-serif;font-weight:400;" transform="translate(85.964 672.0214)" fill="#333333">33-海阳市</text>
<text dominant-baseline="central" text-anchor="end" style="font-size:14px;font-family:SimSun, 宋体, Songti SC, sans-serif;font-weight:400;" transform="translate(85.964 692.4522)" fill="#333333">34-莱阳市</text>
<text dominant-baseline="central" text-anchor="end" style="font-size:14px;font-family:SimSun, 宋体, Songti SC, sans-serif;font-weight:400;" transform="translate(85.964 712.883)" fill="#333333">35-商河县</text>
<text dominant-baseline="central" text-anchor="end" style="font-size:14px;font-family:SimSun, 宋体, Songti SC, sans-serif;font-weight:400;" transform="translate(85.964 733.3138)" fill="#333333">36-昌邑市</text>
<text dominant-baseline="central" text-anchor="end" style="font-size:14px;font-family:SimSun, 宋体, Songti SC, sans-serif;font-weight:400;" transform="translate(85.964 753.7446)" fill="#333333">37-昌乐县</text>
<text dominant-baseline="central" text-anchor="middle" style="font-size:14px;font-family:Times New Roman;font-weight:400;" y="7" transform="translate(93.964 771.96)" fill="#86909c">0</text>
<text dominant-baseline="central" text-anchor="middle" style="font-size:14px;font-family:Times New Roman;font-weight:400;" y="7" transform="translate(189.498 771.96)" fill="#86909c">20</text>
<text dominant-baseline="central" text-anchor="middle" style="font-size:14px;font-family:Times New Roman;font-weight:400;" y="7" transform="translate(285.032 771.96)" fill="#86909c">40</text>
<text dominant-baseline="central" text-anchor="middle" style="font-size:14px;font-family:Times New Roman;font-weight:400;" y="7" transform="translate(380.566 771.96)" fill="#86909c">60</text>
<text dominant-baseline="central" text-anchor="middle" style="font-size:14px;font-family:Times New Roman;font-weight:400;" y="7" transform="translate(476.1 771.96)" fill="#86909c">80</text>
<path d="M93.964 15.2354l361.1185 0l0 6l-361.1185 0Z" fill="#5693C7"></path>
<path d="M93.964 35.6662l358.3958 0l0 6l-358.3958 0Z" fill="#5693C7"></path>
<path d="M93.964 56.097l348.5081 0l0 6l-348.5081 0Z" fill="#5693C7"></path>
<path d="M93.964 76.5278l346.1197 0l0 6l-346.1197 0Z" fill="#5693C7"></path>
<path d="M93.964 96.9586l345.3077 0l0 6l-345.3077 0Z" fill="#5693C7"></path>
<path d="M93.964 117.3895l344.2568 0l0 6l-344.2568 0Z" fill="#5693C7"></path>
<path d="M93.964 137.8203l341.9162 0l0 6l-341.9162 0Z" fill="#5693C7"></path>
<path d="M93.964 158.2511l340.1011 0l0 6l-340.1011 0Z" fill="#5693C7"></path>
<path d="M93.964 178.6819l338.2859 0l0 6l-338.2859 0Z" fill="#5693C7"></path>
<path d="M93.964 199.1127l338.2859 0l0 6l-338.2859 0Z" fill="#5693C7"></path>
<path d="M93.964 219.5435l336.6141 0l0 6l-336.6141 0Z" fill="#5693C7"></path>
<path d="M93.964 239.9743l335.9453 0l0 6l-335.9453 0Z" fill="#5693C7"></path>
<path d="M93.964 260.4051l335.802 0l0 6l-335.802 0Z" fill="#5693C7"></path>
<path d="M93.964 280.8359l335.5154 0l0 6l-335.5154 0Z" fill="#5693C7"></path>
<path d="M93.964 301.2668l335.0378 0l0 6l-335.0378 0Z" fill="#5693C7"></path>
<path d="M93.964 321.6976l334.4168 0l0 6l-334.4168 0Z" fill="#5693C7"></path>
<path d="M93.964 342.1284l333.557 0l0 6l-333.557 0Z" fill="#5693C7"></path>
<path d="M93.964 362.5592l332.9838 0l0 6l-332.9838 0Z" fill="#5693C7"></path>
<path d="M93.964 382.99l332.2673 0l0 6l-332.2673 0Z" fill="#5693C7"></path>
<path d="M93.964 403.4208l331.503 0l0 6l-331.503 0Z" fill="#5693C7"></path>
<path d="M93.964 423.8516l330.4044 0l0 6l-330.4044 0Z" fill="#5693C7"></path>
<path d="M93.964 444.2824l329.9267 0l0 6l-329.9267 0Z" fill="#5693C7"></path>
<path d="M93.964 464.7132l329.5446 0l0 6l-329.5446 0Z" fill="#5693C7"></path>
<path d="M93.964 485.1441l328.5414 0l0 6l-328.5414 0Z" fill="#5693C7"></path>
<path d="M93.964 505.5749l328.1115 0l0 6l-328.1115 0Z" fill="#5693C7"></path>
<path d="M93.964 526.0057l326.7263 0l0 6l-326.7263 0Z" fill="#5693C7"></path>
<path d="M93.964 546.4365l326.0576 0l0 6l-326.0576 0Z" fill="#5693C7"></path>
<path d="M93.964 566.8673l325.3411 0l0 6l-325.3411 0Z" fill="#5693C7"></path>
<path d="M93.964 587.2981l324.0036 0l0 6l-324.0036 0Z" fill="#5693C7"></path>
<path d="M93.964 607.7289l323.6692 0l0 6l-323.6692 0Z" fill="#5693C7"></path>
<path d="M93.964 628.1597l323.4304 0l0 6l-323.4304 0Z" fill="#5693C7"></path>
<path d="M93.964 648.5905l323.2871 0l0 6l-323.2871 0Z" fill="#5693C7"></path>
<path d="M93.964 669.0214l323.1438 0l0 6l-323.1438 0Z" fill="#5693C7"></path>
<path d="M93.964 689.4522l316.9818 0l0 6l-316.9818 0Z" fill="#5693C7"></path>
<path d="M93.964 709.883l314.689 0l0 6l-314.689 0Z" fill="#5693C7"></path>
<path d="M93.964 730.3138l314.068 0l0 6l-314.068 0Z" fill="#5693C7"></path>
<path d="M93.964 750.7446l311.4409 0l0 6l-311.4409 0Z" fill="#5693C7"></path>
<text dominant-baseline="central" text-anchor="start" style="font-size:14px;font-family:Times New Roman;font-weight:400;" transform="translate(460.0825 18.2354)" fill="#333333">75.60</text>
<text dominant-baseline="central" text-anchor="start" style="font-size:14px;font-family:Times New Roman;font-weight:400;" transform="translate(457.3598 38.6662)" fill="#333333">75.03</text>
<text dominant-baseline="central" text-anchor="start" style="font-size:14px;font-family:Times New Roman;font-weight:400;" transform="translate(447.472 59.097)" fill="#333333">72.96</text>
<text dominant-baseline="central" text-anchor="start" style="font-size:14px;font-family:Times New Roman;font-weight:400;" transform="translate(445.0837 79.5278)" fill="#333333">72.46</text>
<text dominant-baseline="central" text-anchor="start" style="font-size:14px;font-family:Times New Roman;font-weight:400;" transform="translate(444.2716 99.9586)" fill="#333333">72.29</text>
<text dominant-baseline="central" text-anchor="start" style="font-size:14px;font-family:Times New Roman;font-weight:400;" transform="translate(443.2208 120.3895)" fill="#333333">72.07</text>
<text dominant-baseline="central" text-anchor="start" style="font-size:14px;font-family:Times New Roman;font-weight:400;" transform="translate(440.8802 140.8203)" fill="#333333">71.58</text>
<text dominant-baseline="central" text-anchor="start" style="font-size:14px;font-family:Times New Roman;font-weight:400;" transform="translate(439.065 161.2511)" fill="#333333">71.20</text>
<text dominant-baseline="central" text-anchor="start" style="font-size:14px;font-family:Times New Roman;font-weight:400;" transform="translate(437.2499 181.6819)" fill="#333333">70.82</text>
<text dominant-baseline="central" text-anchor="start" style="font-size:14px;font-family:Times New Roman;font-weight:400;" transform="translate(437.2499 202.1127)" fill="#333333">70.82</text>
<text dominant-baseline="central" text-anchor="start" style="font-size:14px;font-family:Times New Roman;font-weight:400;" transform="translate(435.578 222.5435)" fill="#333333">70.47</text>
<text dominant-baseline="central" text-anchor="start" style="font-size:14px;font-family:Times New Roman;font-weight:400;" transform="translate(434.9093 242.9743)" fill="#333333">70.33</text>
<text dominant-baseline="central" text-anchor="start" style="font-size:14px;font-family:Times New Roman;font-weight:400;" transform="translate(434.766 263.4051)" fill="#333333">70.30</text>
<text dominant-baseline="central" text-anchor="start" style="font-size:14px;font-family:Times New Roman;font-weight:400;" transform="translate(434.4794 283.8359)" fill="#333333">70.24</text>
<text dominant-baseline="central" text-anchor="start" style="font-size:14px;font-family:Times New Roman;font-weight:400;" transform="translate(434.0017 304.2668)" fill="#333333">70.14</text>
<text dominant-baseline="central" text-anchor="start" style="font-size:14px;font-family:Times New Roman;font-weight:400;" transform="translate(433.3808 324.6976)" fill="#333333">70.01</text>
<text dominant-baseline="central" text-anchor="start" style="font-size:14px;font-family:Times New Roman;font-weight:400;" transform="translate(432.521 345.1284)" fill="#333333">69.83</text>
<text dominant-baseline="central" text-anchor="start" style="font-size:14px;font-family:Times New Roman;font-weight:400;" transform="translate(431.9478 365.5592)" fill="#333333">69.71</text>
<text dominant-baseline="central" text-anchor="start" style="font-size:14px;font-family:Times New Roman;font-weight:400;" transform="translate(431.2312 385.99)" fill="#333333">69.56</text>
<text dominant-baseline="central" text-anchor="start" style="font-size:14px;font-family:Times New Roman;font-weight:400;" transform="translate(430.467 406.4208)" fill="#333333">69.40</text>
<text dominant-baseline="central" text-anchor="start" style="font-size:14px;font-family:Times New Roman;font-weight:400;" transform="translate(429.3683 426.8516)" fill="#333333">69.17</text>
<text dominant-baseline="central" text-anchor="start" style="font-size:14px;font-family:Times New Roman;font-weight:400;" transform="translate(428.8907 447.2824)" fill="#333333">69.07</text>
<text dominant-baseline="central" text-anchor="start" style="font-size:14px;font-family:Times New Roman;font-weight:400;" transform="translate(428.5085 467.7132)" fill="#333333">68.99</text>
<text dominant-baseline="central" text-anchor="start" style="font-size:14px;font-family:Times New Roman;font-weight:400;" transform="translate(427.5054 488.1441)" fill="#333333">68.78</text>
<text dominant-baseline="central" text-anchor="start" style="font-size:14px;font-family:Times New Roman;font-weight:400;" transform="translate(427.0755 508.5749)" fill="#333333">68.69</text>
<text dominant-baseline="central" text-anchor="start" style="font-size:14px;font-family:Times New Roman;font-weight:400;" transform="translate(425.6903 529.0057)" fill="#333333">68.40</text>
<text dominant-baseline="central" text-anchor="start" style="font-size:14px;font-family:Times New Roman;font-weight:400;" transform="translate(425.0215 549.4365)" fill="#333333">68.26</text>
<text dominant-baseline="central" text-anchor="start" style="font-size:14px;font-family:Times New Roman;font-weight:400;" transform="translate(424.305 569.8673)" fill="#333333">68.11</text>
<text dominant-baseline="central" text-anchor="start" style="font-size:14px;font-family:Times New Roman;font-weight:400;" transform="translate(422.9676 590.2981)" fill="#333333">67.83</text>
<text dominant-baseline="central" text-anchor="start" style="font-size:14px;font-family:Times New Roman;font-weight:400;" transform="translate(422.6332 610.7289)" fill="#333333">67.76</text>
<text dominant-baseline="central" text-anchor="start" style="font-size:14px;font-family:Times New Roman;font-weight:400;" transform="translate(422.3944 631.1597)" fill="#333333">67.71</text>
<text dominant-baseline="central" text-anchor="start" style="font-size:14px;font-family:Times New Roman;font-weight:400;" transform="translate(422.2511 651.5905)" fill="#333333">67.68</text>
<text dominant-baseline="central" text-anchor="start" style="font-size:14px;font-family:Times New Roman;font-weight:400;" transform="translate(422.1078 672.0214)" fill="#333333">67.65</text>
<text dominant-baseline="central" text-anchor="start" style="font-size:14px;font-family:Times New Roman;font-weight:400;" transform="translate(415.9458 692.4522)" fill="#333333">66.36</text>
<text dominant-baseline="central" text-anchor="start" style="font-size:14px;font-family:Times New Roman;font-weight:400;" transform="translate(413.653 712.883)" fill="#333333">65.88</text>
<text dominant-baseline="central" text-anchor="start" style="font-size:14px;font-family:Times New Roman;font-weight:400;" transform="translate(413.032 733.3138)" fill="#333333">65.75</text>
<text dominant-baseline="central" text-anchor="start" style="font-size:14px;font-family:Times New Roman;font-weight:400;" transform="translate(410.4048 753.7446)" fill="#333333">65.20</text>
</svg>